# xmcd
#
# Track frame offsets:
#	183
#	10853
#	23080
#	35933
#	48238
#	60313
#	75380
#	86008
#	100653
#	110048
#	119520
#	129750
#
# Disc length: 1887 seconds
#
# Revision: 2
# Processed by: cddbd v1.5.2PL0 Copyright (c) Steve Scherf et al.
# Submitted via: EZCDAudioConverter 6.0.5.1
#
DISCID=8d075d0c
DTITLE=Conway Twitty - I Need Your Lovin'
DYEAR=1993
DGENRE=Country
TTITLE0=Born To Sing The Blues
TTITLE1=Golly Gosh Oh Gee
TTITLE2=Crazy Dreams
TTITLE3=Shake It Up Baby
TTITLE4=Maybe Baby
TTITLE5=Why Can't I Get Through To You
TTITLE6=Double Talk Baby
TTITLE7=I Need Your Lovin'
TTITLE8=This Road That I Walk
TTITLE9=I Wonder If You Told Her (About Me)
TTITLE10=Midnight
TTITLE11=You Made Me What I Am Today
EXTD=
EXTT0=
EXTT1=
EXTT2=
EXTT3=
EXTT4=
EXTT5=
EXTT6=
EXTT7=
EXTT8=
EXTT9=
EXTT10=
EXTT11=
PLAYORDER=
